<?xml version="1.0" encoding="iso-8859-1"?>
<!-- Generator: Adobe Illustrator 18.1.1, SVG Export Plug-In . SVG Version: 6.00 Build 0)  -->
<svg version="1.1" id="Capa_1" xmlns="http://www.w3.org/2000/svg" xmlns:xlink="http://www.w3.org/1999/xlink" x="0px" y="0px"
	 viewBox="0 0 492 492" style="enable-background:new 0 0 492 492;" xml:space="preserve">
<g>
	<path style="fill:#010002;" d="M473.5,145.5C461.167,133.833,446.667,128,430,128h-51V75c0-19.333-6.667-35.833-20-49.5
		S329.667,5,311,5H181c-18.667,0-34.667,6.833-48,20.5c-13.334,13.667-20,30.167-20,49.5v53H62c-16.667,0-31.167,5.833-43.5,17.5
		S0,171.667,0,189v236c0,16.667,6.167,31.167,18.5,43.5S45.333,487,62,487h368c16.667,0,31.167-6.167,43.5-18.5S492,441.333,492,424
		V189C492,171.667,485.833,157.167,473.5,145.5z M154,75c0-7.333,2.833-14,8.5-20s11.834-9,18.5-9h130c6.667,0,12.833,3,18.5,9
		s8.5,12.667,8.5,20v53H154V75z M359,353h-72v72h-82v-72h-72v-82h72v-71h82v71h72V353z"/>
</g>
<g>
</g>
<g>
</g>
<g>
</g>
<g>
</g>
<g>
</g>
<g>
</g>
<g>
</g>
<g>
</g>
<g>
</g>
<g>
</g>
<g>
</g>
<g>
</g>
<g>
</g>
<g>
</g>
<g>
</g>
</svg>
